<svg width="24" height="20" viewBox="0 0 24 20" fill="none" xmlns="http://www.w3.org/2000/svg">
<path d="M22.711 15.3946L18.7388 12.1415L15.6835 11.1078C16.7008 9.92296 17.2459 8.50949 17.2439 7.06108C17.2439 3.16758 13.3761 0 8.62195 0C3.86778 0 0 3.16758 0 7.06108C0 10.9546 3.86778 14.1222 8.62195 14.1222C10.4059 14.1238 12.1461 13.6698 13.6001 12.8232L14.8591 15.3187L18.8311 18.5719C19.0859 18.7805 19.3883 18.946 19.7211 19.0589C20.054 19.1719 20.4107 19.23 20.771 19.23C21.1313 19.23 21.488 19.1719 21.8208 19.059C22.1537 18.9461 22.4561 18.7806 22.7109 18.572C22.9656 18.3634 23.1677 18.1157 23.3056 17.8431C23.4435 17.5705 23.5145 17.2784 23.5145 16.9833C23.5145 16.6883 23.4435 16.3961 23.3057 16.1235C23.1678 15.8509 22.9657 15.6032 22.711 15.3946ZM1.56763 7.06108C1.56763 3.87557 4.73228 1.28383 8.62195 1.28383C12.5116 1.28383 15.6763 3.87557 15.6763 7.06108C15.6763 10.2466 12.5116 12.8383 8.62195 12.8383C4.73228 12.8383 1.56763 10.2466 1.56763 7.06108ZM21.6025 17.6641C21.3818 17.8444 21.0828 17.9457 20.7711 17.9457C20.4593 17.9457 20.1604 17.8444 19.9397 17.6641L16.1885 14.592L15.018 12.2717L17.8514 13.2303L21.6025 16.3024C21.8227 16.4831 21.9463 16.728 21.9463 16.9833C21.9463 17.2385 21.8226 17.4834 21.6025 17.6641Z" fill="black"/>
</svg>
